<?xml version="1.0" encoding="utf-8" standalone="no"?>
<!DOCTYPE svg PUBLIC "-//W3C//DTD SVG 1.1//EN"
  "http://www.w3.org/Graphics/SVG/1.1/DTD/svg11.dtd">
<svg xmlns:xlink="http://www.w3.org/1999/xlink" width="1080pt" height="864pt" viewBox="0 0 1080 864" xmlns="http://www.w3.org/2000/svg" version="1.1">
 <metadata>
  <rdf:RDF xmlns:dc="http://purl.org/dc/elements/1.1/" xmlns:cc="http://creativecommons.org/ns#" xmlns:rdf="http://www.w3.org/1999/02/22-rdf-syntax-ns#">
   <cc:Work>
    <dc:type rdf:resource="http://purl.org/dc/dcmitype/StillImage"/>
    <dc:format>image/svg+xml</dc:format>
    <dc:creator>
     <cc:Agent>
      <dc:title>Matplotlib v3.11.2, https://matplotlib.org/</dc:title>
     </cc:Agent>
    </dc:creator>
   </cc:Work>
  </rdf:RDF>
 </metadata>
 <defs>
  <style type="text/css">*{stroke-linejoin: round; stroke-linecap: butt}</style>
 </defs>
 <g id="figure_1">
  <g id="patch_1">
   <path d="M 0 864
L 1080 864
L 1080 0
L 0 0
z
" style="fill: #f5f8fb"/>
  </g>
  <g id="axes_1">
   <g id="patch_2">
    <path d="M 253.8 699.84
L 1004.4 699.84
L 1004.4 146.88
L 253.8 146.88
z
" style="fill: #f5f8fb"/>
   </g>
   <g id="matplotlib.axis_1">
    <g id="xtick_1">
     <g id="line2d_1">
      <path d="M 253.8 699.84
L 253.8 146.88
" clip-path="url(#p8f8849c1a0)" style="fill: none; stroke: #dde5ec; stroke-width: 0.8; stroke-linecap: square"/>
     </g>
     <g id="line2d_2"/>
     <g id="text_1">
      <text style="font-size: 11px; font-family: 'DejaVu Sans'; text-anchor: middle; fill: #566b7c" x="253.8" y="718.197422" transform="rotate(-0 253.8 718.197422)">0</text>
     </g>
    </g>
    <g id="xtick_2">
     <g id="line2d_3">
      <path d="M 392.8 699.84
L 392.8 146.88
" clip-path="url(#p8f8849c1a0)" style="fill: none; stroke: #dde5ec; stroke-width: 0.8; stroke-linecap: square"/>
     </g>
     <g id="line2d_4"/>
     <g id="text_2">
      <text style="font-size: 11px; font-family: 'DejaVu Sans'; text-anchor: middle; fill: #566b7c" x="392.8" y="718.197422" transform="rotate(-0 392.8 718.197422)">20</text>
     </g>
    </g>
    <g id="xtick_3">
     <g id="line2d_5">
      <path d="M 531.8 699.84
L 531.8 146.88
" clip-path="url(#p8f8849c1a0)" style="fill: none; stroke: #dde5ec; stroke-width: 0.8; stroke-linecap: square"/>
     </g>
     <g id="line2d_6"/>
     <g id="text_3">
      <text style="font-size: 11px; font-family: 'DejaVu Sans'; text-anchor: middle; fill: #566b7c" x="531.8" y="718.197422" transform="rotate(-0 531.8 718.197422)">40</text>
     </g>
    </g>
    <g id="xtick_4">
     <g id="line2d_7">
      <path d="M 670.8 699.84
L 670.8 146.88
" clip-path="url(#p8f8849c1a0)" style="fill: none; stroke: #dde5ec; stroke-width: 0.8; stroke-linecap: square"/>
     </g>
     <g id="line2d_8"/>
     <g id="text_4">
      <text style="font-size: 11px; font-family: 'DejaVu Sans'; text-anchor: middle; fill: #566b7c" x="670.8" y="718.197422" transform="rotate(-0 670.8 718.197422)">60</text>
     </g>
    </g>
    <g id="xtick_5">
     <g id="line2d_9">
      <path d="M 809.8 699.84
L 809.8 146.88
" clip-path="url(#p8f8849c1a0)" style="fill: none; stroke: #dde5ec; stroke-width: 0.8; stroke-linecap: square"/>
     </g>
     <g id="line2d_10"/>
     <g id="text_5">
      <text style="font-size: 11px; font-family: 'DejaVu Sans'; text-anchor: middle; fill: #566b7c" x="809.8" y="718.197422" transform="rotate(-0 809.8 718.197422)">80</text>
     </g>
    </g>
    <g id="xtick_6">
     <g id="line2d_11">
      <path d="M 948.8 699.84
L 948.8 146.88
" clip-path="url(#p8f8849c1a0)" style="fill: none; stroke: #dde5ec; stroke-width: 0.8; stroke-linecap: square"/>
     </g>
     <g id="line2d_12"/>
     <g id="text_6">
      <text style="font-size: 11px; font-family: 'DejaVu Sans'; text-anchor: middle; fill: #566b7c" x="948.8" y="718.197422" transform="rotate(-0 948.8 718.197422)">100</text>
     </g>
    </g>
   </g>
   <g id="matplotlib.axis_2">
    <g id="ytick_1">
     <g id="line2d_13"/>
     <g id="text_7">
      <text style="font-size: 12px; font-family: 'DejaVu Sans'; text-anchor: end; fill: #566b7c" x="243.8" y="192.398594" transform="rotate(-0 243.8 192.398594)">ISTA Q2_0</text>
     </g>
    </g>
    <g id="ytick_2">
     <g id="line2d_14"/>
     <g id="text_8">
      <text style="font-size: 12px; font-family: 'DejaVu Sans'; text-anchor: end; fill: #566b7c" x="243.8" y="226.531927" transform="rotate(-0 243.8 226.531927)">ISTA IQ2_XS</text>
     </g>
    </g>
    <g id="ytick_3">
     <g id="line2d_15"/>
     <g id="text_9">
      <text style="font-size: 12px; font-family: 'DejaVu Sans'; text-anchor: end; fill: #566b7c" x="243.8" y="260.665729" transform="rotate(-0 243.8 260.665729)">Swift 1.5 Q2_0</text>
     </g>
    </g>
    <g id="ytick_4">
     <g id="line2d_16"/>
     <g id="text_10">
      <text style="font-size: 12px; font-family: 'DejaVu Sans'; text-anchor: end; fill: #566b7c" x="243.8" y="294.799062" transform="rotate(-0 243.8 294.799062)">Swift 1.5 IQ2_XS</text>
     </g>
    </g>
    <g id="ytick_5">
     <g id="line2d_17"/>
     <g id="text_11">
      <text style="font-size: 12px; font-family: 'DejaVu Sans'; text-anchor: end; fill: #566b7c" x="243.8" y="328.931927" transform="rotate(-0 243.8 328.931927)">ISTA IQ3_XXS</text>
     </g>
    </g>
    <g id="ytick_6">
     <g id="line2d_18"/>
     <g id="text_12">
      <text style="font-size: 12px; font-family: 'DejaVu Sans'; text-anchor: end; fill: #566b7c" x="243.8" y="363.065729" transform="rotate(-0 243.8 363.065729)">Swift 1.5 IQ3_XXS</text>
     </g>
    </g>
    <g id="ytick_7">
     <g id="line2d_19"/>
     <g id="text_13">
      <text style="font-size: 12px; font-family: 'DejaVu Sans'; text-anchor: end; fill: #566b7c" x="243.8" y="431.331927" transform="rotate(-0 243.8 431.331927)">AP-Q4_K_XL</text>
     </g>
    </g>
    <g id="ytick_8">
     <g id="line2d_20"/>
     <g id="text_14">
      <text style="font-size: 12px; font-family: 'DejaVu Sans'; text-anchor: end; fill: #566b7c" x="243.8" y="465.46526" transform="rotate(-0 243.8 465.46526)">AP-IQ3_XXS</text>
     </g>
    </g>
    <g id="ytick_9">
     <g id="line2d_21"/>
     <g id="text_15">
      <text style="font-size: 12px; font-family: 'DejaVu Sans'; text-anchor: end; fill: #566b7c" x="243.8" y="499.598594" transform="rotate(-0 243.8 499.598594)">AP-IQ2_S</text>
     </g>
    </g>
    <g id="ytick_10">
     <g id="line2d_22"/>
     <g id="text_16">
      <text style="font-size: 12px; font-family: 'DejaVu Sans'; text-anchor: end; fill: #566b7c" x="243.8" y="567.86526" transform="rotate(-0 243.8 567.86526)">Gyro-S / TQ1_0</text>
     </g>
    </g>
    <g id="ytick_11">
     <g id="line2d_23"/>
     <g id="text_17">
      <text style="font-size: 12px; font-family: 'DejaVu Sans'; text-anchor: end; fill: #566b7c" x="243.8" y="601.998594" transform="rotate(-0 243.8 601.998594)">Gyro-M / TQ2_0</text>
     </g>
    </g>
    <g id="ytick_12">
     <g id="line2d_24"/>
     <g id="text_18">
      <text style="font-size: 12px; font-family: 'DejaVu Sans'; text-anchor: end; fill: #566b7c" x="243.8" y="670.265729" transform="rotate(-0 243.8 670.265729)">Reference</text>
     </g>
    </g>
   </g>
   <g id="patch_3">
    <path d="M 253.8 188.693333
L 809.8 188.693333
L 809.8 197.226667
L 253.8 197.226667
z
" clip-path="url(#p8f8849c1a0)" style="fill: #bce3e2; stroke: #087f8c; stroke-width: 0.55; stroke-linejoin: miter"/>
   </g>
   <g id="patch_4">
    <path d="M 253.8 178.453333
L 830.65 178.453333
L 830.65 186.986667
L 253.8 186.986667
z
" clip-path="url(#p8f8849c1a0)" style="fill: #087f8c"/>
   </g>
   <g id="patch_5">
    <path d="M 253.8 222.826667
L 740.3 222.826667
L 740.3 231.36
L 253.8 231.36
z
" clip-path="url(#p8f8849c1a0)" style="fill: #bce3e2; stroke: #087f8c; stroke-width: 0.55; stroke-linejoin: miter"/>
   </g>
   <g id="patch_6">
    <path d="M 253.8 212.586667
L 795.9 212.586667
L 795.9 221.12
L 253.8 221.12
z
" clip-path="url(#p8f8849c1a0)" style="fill: #087f8c"/>
   </g>
   <g id="patch_7">
    <path d="M 253.8 256.96
L 927.95 256.96
L 927.95 265.493333
L 253.8 265.493333
z
" clip-path="url(#p8f8849c1a0)" style="fill: #bce3e2; stroke: #087f8c; stroke-width: 0.55; stroke-linejoin: miter"/>
   </g>
   <g id="patch_8">
    <path d="M 253.8 246.72
L 865.4 246.72
L 865.4 255.253333
L 253.8 255.253333
z
" clip-path="url(#p8f8849c1a0)" style="fill: #087f8c"/>
   </g>
   <g id="patch_9">
    <path d="M 253.8 291.093333
L 900.15 291.093333
L 900.15 299.626667
L 253.8 299.626667
z
" clip-path="url(#p8f8849c1a0)" style="fill: #bce3e2; stroke: #087f8c; stroke-width: 0.55; stroke-linejoin: miter"/>
   </g>
   <g id="patch_10">
    <path d="M 253.8 280.853333
L 844.55 280.853333
L 844.55 289.386667
L 253.8 289.386667
z
" clip-path="url(#p8f8849c1a0)" style="fill: #087f8c"/>
   </g>
   <g id="patch_11">
    <path d="M 253.8 325.226667
L 948.8 325.226667
L 948.8 333.76
L 253.8 333.76
z
" clip-path="url(#p8f8849c1a0)" style="fill: #bce3e2; stroke: #087f8c; stroke-width: 0.55; stroke-linejoin: miter"/>
   </g>
   <g id="patch_12">
    <path d="M 253.8 314.986667
L 879.3 314.986667
L 879.3 323.52
L 253.8 323.52
z
" clip-path="url(#p8f8849c1a0)" style="fill: #087f8c"/>
   </g>
   <g id="patch_13">
    <path d="M 253.8 359.36
L 948.8 359.36
L 948.8 367.893333
L 253.8 367.893333
z
" clip-path="url(#p8f8849c1a0)" style="fill: #bce3e2; stroke: #087f8c; stroke-width: 0.55; stroke-linejoin: miter"/>
   </g>
   <g id="patch_14">
    <path d="M 253.8 349.12
L 865.4 349.12
L 865.4 357.653333
L 253.8 357.653333
z
" clip-path="url(#p8f8849c1a0)" style="fill: #087f8c"/>
   </g>
   <g id="patch_15">
    <path d="M 253.8 427.626667
L 927.95 427.626667
L 927.95 436.16
L 253.8 436.16
z
" clip-path="url(#p8f8849c1a0)" style="fill: #bce3e2; stroke: #087f8c; stroke-width: 0.55; stroke-linejoin: miter"/>
   </g>
   <g id="patch_16">
    <path d="M 253.8 417.386667
L 844.55 417.386667
L 844.55 425.92
L 253.8 425.92
z
" clip-path="url(#p8f8849c1a0)" style="fill: #087f8c"/>
   </g>
   <g id="patch_17">
    <path d="M 253.8 461.76
L 879.3 461.76
L 879.3 470.293333
L 253.8 470.293333
z
" clip-path="url(#p8f8849c1a0)" style="fill: #bce3e2; stroke: #087f8c; stroke-width: 0.55; stroke-linejoin: miter"/>
   </g>
   <g id="patch_18">
    <path d="M 253.8 451.52
L 872.35 451.52
L 872.35 460.053333
L 253.8 460.053333
z
" clip-path="url(#p8f8849c1a0)" style="fill: #087f8c"/>
   </g>
   <g id="patch_19">
    <path d="M 253.8 495.893333
L 900.15 495.893333
L 900.15 504.426667
L 253.8 504.426667
z
" clip-path="url(#p8f8849c1a0)" style="fill: #bce3e2; stroke: #087f8c; stroke-width: 0.55; stroke-linejoin: miter"/>
   </g>
   <g id="patch_20">
    <path d="M 253.8 485.653333
L 865.4 485.653333
L 865.4 494.186667
L 253.8 494.186667
z
" clip-path="url(#p8f8849c1a0)" style="fill: #087f8c"/>
   </g>
   <g id="patch_21">
    <path d="M 253.8 564.16
L 948.8 564.16
L 948.8 572.693333
L 253.8 572.693333
z
" clip-path="url(#p8f8849c1a0)" style="fill: #bce3e2; stroke: #087f8c; stroke-width: 0.55; stroke-linejoin: miter"/>
   </g>
   <g id="patch_22">
    <path d="M 253.8 553.92
L 872.35 553.92
L 872.35 562.453333
L 253.8 562.453333
z
" clip-path="url(#p8f8849c1a0)" style="fill: #087f8c"/>
   </g>
   <g id="patch_23">
    <path d="M 253.8 598.293333
L 900.15 598.293333
L 900.15 606.826667
L 253.8 606.826667
z
" clip-path="url(#p8f8849c1a0)" style="fill: #bce3e2; stroke: #087f8c; stroke-width: 0.55; stroke-linejoin: miter"/>
   </g>
   <g id="patch_24">
    <path d="M 253.8 588.053333
L 851.5 588.053333
L 851.5 596.586667
L 253.8 596.586667
z
" clip-path="url(#p8f8849c1a0)" style="fill: #087f8c"/>
   </g>
   <g id="patch_25">
    <path d="M 253.8 666.56
L 927.95 666.56
L 927.95 675.093333
L 253.8 675.093333
z
" clip-path="url(#p8f8849c1a0)" style="fill: #bce3e2; stroke: #087f8c; stroke-width: 0.55; stroke-linejoin: miter"/>
   </g>
   <g id="patch_26">
    <path d="M 253.8 656.32
L 865.4 656.32
L 865.4 664.853333
L 253.8 664.853333
z
" clip-path="url(#p8f8849c1a0)" style="fill: #087f8c"/>
   </g>
   <g id="text_19">
    <text style="font-size: 11px; font-family: 'DejaVu Sans'; text-anchor: start; fill: #566b7c" x="818.14" y="195.817422" transform="rotate(-0 818.14 195.817422)">80</text>
   </g>
   <g id="text_20">
    <text style="font-weight: 700; font-size: 11px; font-family: 'DejaVu Sans'; text-anchor: start; fill: #087f8c" x="838.99" y="185.577422" transform="rotate(-0 838.99 185.577422)">83</text>
   </g>
   <g id="text_21">
    <text style="font-size: 11px; font-family: 'DejaVu Sans'; text-anchor: start; fill: #566b7c" x="748.64" y="229.950755" transform="rotate(-0 748.64 229.950755)">70</text>
   </g>
   <g id="text_22">
    <text style="font-weight: 700; font-size: 11px; font-family: 'DejaVu Sans'; text-anchor: start; fill: #087f8c" x="804.24" y="219.710755" transform="rotate(-0 804.24 219.710755)">78</text>
   </g>
   <g id="text_23">
    <text style="font-size: 11px; font-family: 'DejaVu Sans'; text-anchor: start; fill: #566b7c" x="936.29" y="264.084089" transform="rotate(-0 936.29 264.084089)">97</text>
   </g>
   <g id="text_24">
    <text style="font-weight: 700; font-size: 11px; font-family: 'DejaVu Sans'; text-anchor: start; fill: #087f8c" x="873.74" y="253.844089" transform="rotate(-0 873.74 253.844089)">88</text>
   </g>
   <g id="text_25">
    <text style="font-size: 11px; font-family: 'DejaVu Sans'; text-anchor: start; fill: #566b7c" x="908.49" y="298.217422" transform="rotate(-0 908.49 298.217422)">93</text>
   </g>
   <g id="text_26">
    <text style="font-weight: 700; font-size: 11px; font-family: 'DejaVu Sans'; text-anchor: start; fill: #087f8c" x="852.89" y="287.977422" transform="rotate(-0 852.89 287.977422)">85</text>
   </g>
   <g id="text_27">
    <text style="font-size: 11px; font-family: 'DejaVu Sans'; text-anchor: start; fill: #566b7c" x="957.14" y="332.350755" transform="rotate(-0 957.14 332.350755)">100</text>
   </g>
   <g id="text_28">
    <text style="font-weight: 700; font-size: 11px; font-family: 'DejaVu Sans'; text-anchor: start; fill: #087f8c" x="887.64" y="322.110755" transform="rotate(-0 887.64 322.110755)">90</text>
   </g>
   <g id="text_29">
    <text style="font-size: 11px; font-family: 'DejaVu Sans'; text-anchor: start; fill: #566b7c" x="957.14" y="366.484089" transform="rotate(-0 957.14 366.484089)">100</text>
   </g>
   <g id="text_30">
    <text style="font-weight: 700; font-size: 11px; font-family: 'DejaVu Sans'; text-anchor: start; fill: #087f8c" x="873.74" y="356.244089" transform="rotate(-0 873.74 356.244089)">88</text>
   </g>
   <g id="text_31">
    <text style="font-size: 11px; font-family: 'DejaVu Sans'; text-anchor: start; fill: #566b7c" x="936.29" y="434.750755" transform="rotate(-0 936.29 434.750755)">97</text>
   </g>
   <g id="text_32">
    <text style="font-weight: 700; font-size: 11px; font-family: 'DejaVu Sans'; text-anchor: start; fill: #087f8c" x="852.89" y="424.510755" transform="rotate(-0 852.89 424.510755)">85</text>
   </g>
   <g id="text_33">
    <text style="font-size: 11px; font-family: 'DejaVu Sans'; text-anchor: start; fill: #566b7c" x="887.64" y="468.884089" transform="rotate(-0 887.64 468.884089)">90</text>
   </g>
   <g id="text_34">
    <text style="font-weight: 700; font-size: 11px; font-family: 'DejaVu Sans'; text-anchor: start; fill: #087f8c" x="880.69" y="458.644089" transform="rotate(-0 880.69 458.644089)">89</text>
   </g>
   <g id="text_35">
    <text style="font-size: 11px; font-family: 'DejaVu Sans'; text-anchor: start; fill: #566b7c" x="908.49" y="503.017422" transform="rotate(-0 908.49 503.017422)">93</text>
   </g>
   <g id="text_36">
    <text style="font-weight: 700; font-size: 11px; font-family: 'DejaVu Sans'; text-anchor: start; fill: #087f8c" x="873.74" y="492.777422" transform="rotate(-0 873.74 492.777422)">88</text>
   </g>
   <g id="text_37">
    <text style="font-size: 11px; font-family: 'DejaVu Sans'; text-anchor: start; fill: #566b7c" x="957.14" y="571.284089" transform="rotate(-0 957.14 571.284089)">100</text>
   </g>
   <g id="text_38">
    <text style="font-weight: 700; font-size: 11px; font-family: 'DejaVu Sans'; text-anchor: start; fill: #087f8c" x="880.69" y="561.044089" transform="rotate(-0 880.69 561.044089)">89</text>
   </g>
   <g id="text_39">
    <text style="font-size: 11px; font-family: 'DejaVu Sans'; text-anchor: start; fill: #566b7c" x="908.49" y="605.417422" transform="rotate(-0 908.49 605.417422)">93</text>
   </g>
   <g id="text_40">
    <text style="font-weight: 700; font-size: 11px; font-family: 'DejaVu Sans'; text-anchor: start; fill: #087f8c" x="859.84" y="595.177422" transform="rotate(-0 859.84 595.177422)">86</text>
   </g>
   <g id="text_41">
    <text style="font-size: 11px; font-family: 'DejaVu Sans'; text-anchor: start; fill: #566b7c" x="936.29" y="673.684089" transform="rotate(-0 936.29 673.684089)">97</text>
   </g>
   <g id="text_42">
    <text style="font-weight: 700; font-size: 11px; font-family: 'DejaVu Sans'; text-anchor: start; fill: #087f8c" x="873.74" y="663.444089" transform="rotate(-0 873.74 663.444089)">88</text>
   </g>
   <g id="text_43">
    <text style="font-weight: 700; font-size: 9px; font-family: 'DejaVu Sans'; text-anchor: start; fill: #566b7c" x="58.644" y="163.946667" transform="rotate(-0 58.644 163.946667)">MAINLINE / RTX PRO 6000</text>
   </g>
   <g id="text_44">
    <text style="font-weight: 700; font-size: 9px; font-family: 'DejaVu Sans'; text-anchor: start; fill: #566b7c" x="58.644" y="401.173333" transform="rotate(-0 58.644 401.173333)">AP / SAME GPU, Q6 BUILD OPTION ON</text>
   </g>
   <g id="text_45">
    <text style="font-weight: 700; font-size: 9px; font-family: 'DejaVu Sans'; text-anchor: start; fill: #566b7c" x="58.644" y="537.706667" transform="rotate(-0 58.644 537.706667)">GYRO / SAME GPU, PATCHED RC1</text>
   </g>
   <g id="text_46">
    <text style="font-weight: 700; font-size: 9px; font-family: 'DejaVu Sans'; text-anchor: start; fill: #566b7c" x="58.644" y="640.106667" transform="rotate(-0 58.644 640.106667)">REFERENCE / SAME GPU + MAINLINE, MMAP</text>
   </g>
   <g id="legend_1">
    <g id="patch_27">
     <path d="M 264.6 88.960387
L 288.6 88.960387
L 288.6 80.560387
L 264.6 80.560387
z
" style="fill: #087f8c"/>
    </g>
    <g id="text_47">
     <text style="font-size: 12px; font-family: 'DejaVu Sans'; text-anchor: start" x="298.2" y="88.960387" transform="rotate(-0 298.2 88.960387)">Standard score /100</text>
    </g>
    <g id="patch_28">
     <path d="M 443.61375 88.960387
L 467.61375 88.960387
L 467.61375 80.560387
L 443.61375 80.560387
z
" style="fill: #bce3e2; stroke: #087f8c; stroke-linejoin: miter"/>
    </g>
    <g id="text_48">
     <text style="font-size: 12px; font-family: 'DejaVu Sans'; text-anchor: start" x="477.21375" y="88.960387" transform="rotate(-0 477.21375 88.960387)">Short score /100</text>
    </g>
   </g>
  </g>
  <g id="text_49">
   <text style="font-weight: 700; font-size: 26px; font-family: 'DejaVu Sans'; text-anchor: start; fill: #152b40" x="59.4" y="43.2" transform="rotate(-0 59.4 43.2)">How well did each model use tools?</text>
  </g>
  <g id="text_50">
   <text style="font-size: 13px; font-family: 'DejaVu Sans'; text-anchor: start; fill: #566b7c" x="59.4" y="77.76" transform="rotate(-0 59.4 77.76)">12 variants  /  short and standard suites  /  one trial per run</text>
  </g>
  <g id="text_51">
   <text style="font-weight: 700; font-size: 12px; font-family: 'DejaVu Sans'; text-anchor: start; fill: #152b40" x="59.4" y="756" transform="rotate(-0 59.4 756)">Read by cohort, not as a hardware or quantization-only ranking.</text>
  </g>
  <g id="text_52">
   <text style="font-size: 10px; font-family: 'DejaVu Sans'; text-anchor: start; fill: #566b7c" x="59.4" y="785.376" transform="rotate(-0 59.4 785.376)">Standard: 69 scored cases; Gyro: 68 (TC-45 excluded). Short: 15 cases, run separately for every variant.</text>
  </g>
  <g id="text_53">
   <text style="font-size: 10px; font-family: 'DejaVu Sans'; text-anchor: start; fill: #566b7c" x="59.4" y="808.704" transform="rotate(-0 59.4 808.704)">Swift is post-trained; AP uses mixed precision. Greedy sampling, thinking off. Timing is preliminary.</text>
  </g>
  <g id="text_54">
   <text style="font-size: 9px; font-family: 'DejaVu Sans'; text-anchor: start; fill: #152b40" x="59.4" y="838.08" transform="rotate(-0 59.4 838.08)">Tool-Eval-Bench by SeraphimSerapis | github.com/SeraphimSerapis/tool-eval-bench  |  Measured 2026-10-07/08</text>
  </g>
 </g>
 <defs>
  <clipPath id="p8f8849c1a0">
   <rect x="253.8" y="146.88" width="750.6" height="552.96"/>
  </clipPath>
 </defs>
</svg>
